<?xml version="1.0" encoding="UTF-8"?>
<svg id="Layer_1" data-name="Layer 1" xmlns="http://www.w3.org/2000/svg" viewBox="0 0 1024 1024">
  <defs>
    <style>
      .cls-1 {
        stroke: #00d1d6;
      }

      .cls-1, .cls-2, .cls-3, .cls-4, .cls-5, .cls-6, .cls-7, .cls-8, .cls-9, .cls-10, .cls-11, .cls-12, .cls-13, .cls-14, .cls-15, .cls-16, .cls-17, .cls-18, .cls-19, .cls-20, .cls-21, .cls-22, .cls-23, .cls-24, .cls-25, .cls-26, .cls-27, .cls-28, .cls-29, .cls-30 {
        fill: none;
        stroke-width: 2px;
      }

      .cls-31 {
        fill: #00c3d3;
      }

      .cls-2 {
        stroke: #005884;
      }

      .cls-3 {
        stroke: #004882;
      }

      .cls-4 {
        stroke: #003464;
      }

      .cls-5 {
        stroke: #005d85;
      }

      .cls-6 {
        stroke: #00afcf;
      }

      .cls-7 {
        stroke: #005367;
      }

      .cls-8 {
        stroke: #00bed2;
      }

      .cls-9 {
        stroke: #004e67;
      }

      .cls-10 {
        stroke: #00a1ce;
      }

      .cls-11 {
        stroke: #004665;
      }

      .cls-12 {
        stroke: #005083;
      }

      .cls-13 {
        stroke: #007ac9;
      }

      .cls-32 {
        fill: #009bcd;
      }

      .cls-33 {
        fill: #0051c3;
      }

      .cls-14 {
        stroke: #00798a;
      }

      .cls-15 {
        stroke: #0093cc;
      }

      .cls-16 {
        stroke: #005dc5;
      }

      .cls-17 {
        stroke: #002962;
      }

      .cls-18 {
        stroke: #006f6c;
      }

      .cls-34 {
        fill: #00a6ce;
      }

      .cls-19 {
        stroke: #00b5d1;
      }

      .cls-35 {
        fill: #00143b;
      }

      .cls-20 {
        stroke: #005c68;
      }

      .cls-21 {
        stroke: #00337f;
      }

      .cls-22 {
        stroke: #003e65;
      }

      .cls-36 {
        fill: #00ded8;
      }

      .cls-37 {
        fill: #007bc9;
      }

      .cls-23 {
        stroke: #00626a;
      }

      .cls-38 {
        fill: #008bca;
      }

      .cls-24 {
        stroke: #006686;
      }

      .cls-25 {
        stroke: #00cbd4;
      }

      .cls-39 {
        fill: #00b8d0;
      }

      .cls-26 {
        stroke: #006c87;
      }

      .cls-27 {
        stroke: #00aacf;
      }

      .cls-28 {
        stroke: #0083ca;
      }

      .cls-29 {
        stroke: #003e81;
      }

      .cls-30 {
        stroke: #0072c8;
      }

      .cls-40 {
        fill: #0068c7;
      }
    </style>
  </defs>
  <g>
    <path class="cls-22" d="M519.24,221.32l-49.05.04" vector-effect="non-scaling-stroke"/>
    <path class="cls-4" d="M470.19,221.36l-79.99.05" vector-effect="non-scaling-stroke"/>
    <path class="cls-17" d="M390.2,221.41c-1.37.07-2.79.11-4.26.11-47.3-.13-82.95-.19-106.94-.18-6.04,0-10.9.31-14.58.9-16.04,2.58-29.92,12.69-39.16,26.09-5.66,8.21-8.44,17.54-9.21,27.17-.07.93-.11,5.1-.12,12.5-.11,131.26-.15,262.52-.12,393.79" vector-effect="non-scaling-stroke"/>
    <path class="cls-4" d="M215.81,681.79c-.02,16.49-.06,32.97-.11,49.46-.07,27.08,17.19,53.39,41.49,64.79,11.2,5.26,21.45,6.92,34.04,7.39" vector-effect="non-scaling-stroke"/>
    <path class="cls-11" d="M291.23,803.43l51.56.06" vector-effect="non-scaling-stroke"/>
    <path class="cls-9" d="M342.79,803.49l105.25-.03" vector-effect="non-scaling-stroke"/>
    <path class="cls-20" d="M448.04,803.46l156.92-.04" vector-effect="non-scaling-stroke"/>
    <path class="cls-23" d="M604.96,803.42c42.68.08,85.36.04,128.04-.11,12.35-.05,24.05-2.69,35.12-7.93" vector-effect="non-scaling-stroke"/>
    <path class="cls-18" d="M768.12,795.38c15.18-7.53,26.17-19.04,32.98-34.53,3.61-8.23,5.59-16.34,5.93-24.33.13-3.09.27-6.18.42-9.27.15-3.08.25-21.25.29-54.5.12-93.16.17-159.94.16-200.33-.03-53.8.39-119.86.3-181.67-.01-7.91-.18-13.55-.49-16.92-2.09-22.07-18.65-43.14-39.95-50.01" vector-effect="non-scaling-stroke"/>
    <path class="cls-23" d="M767.76,223.82c-5.93-1.69-11.68-2.53-17.26-2.54-20.58-.02-29.89-.18-41.57-.06-6.43.06-10.17.05-11.21-.02-1.49-.11-4.18.2-6.29.04-3.39-.25-6.76-.25-10.11.02" vector-effect="non-scaling-stroke"/>
    <path class="cls-7" d="M681.32,221.26l-32.11.05" vector-effect="non-scaling-stroke"/>
    <path class="cls-9" d="M649.21,221.31l-74.9-.12" vector-effect="non-scaling-stroke"/>
    <path class="cls-11" d="M574.31,221.19l-55.07.13" vector-effect="non-scaling-stroke"/>
    <path class="cls-15" d="M574.31,221.19c-.56.29-1.16.45-1.81.46-.29,0-.54.2-.63.47-2.48,7.9-4.03,15.71-4.65,23.44-1.88,23.3-1.95,33.62-4.79,54.23-2.13,15.42-4.11,30.91-5.96,46.46" vector-effect="non-scaling-stroke"/>
    <path class="cls-12" d="M556.47,346.25h-41.48" vector-effect="non-scaling-stroke"/>
    <path class="cls-28" d="M514.99,346.24c1.92-23.69,2.56-47.39,1.92-71.1-.37-13.79-.54-23.91-.53-30.36.01-7.46.97-15.28,2.86-23.46" vector-effect="non-scaling-stroke"/>
    <path class="cls-3" d="M514.99,346.24l-46.65.02" vector-effect="non-scaling-stroke"/>
    <path class="cls-24" d="M539.2,764.67h-103" vector-effect="non-scaling-stroke"/>
    <path class="cls-2" d="M436.2,764.67h-90.74" vector-effect="non-scaling-stroke"/>
    <path class="cls-12" d="M345.46,764.67l-41.75-.03" vector-effect="non-scaling-stroke"/>
    <path class="cls-29" d="M303.71,764.64c-7.52.05-12.59,0-15.22-.12-8.16-.4-16.08-3.99-22.18-9.74-7.99-7.55-12-17.22-12.01-29.03-.05-43.08-.06-86.19-.05-129.32" vector-effect="non-scaling-stroke"/>
    <path class="cls-10" d="M649.21,221.31l-4.18.25c-.29.02-.53.23-.58.52-3.12,16.51-5.17,30.59-8.37,50.28-2.35,14.52-7.19,35.38-9.69,48.74-1.33,7.08-2.47,15.47-3.42,25.17" vector-effect="non-scaling-stroke"/>
    <path class="cls-2" d="M622.97,346.27l-66.5-.02" vector-effect="non-scaling-stroke"/>
    <path class="cls-30" d="M470.19,221.36c-.44,9.55-.99,18.95-1.03,28.69-.11,21.73-.73,43.46-1.88,65.17-.55,10.32-.19,20.67,1.06,31.04" vector-effect="non-scaling-stroke"/>
    <path class="cls-29" d="M468.34,346.26h-105.13" vector-effect="non-scaling-stroke"/>
    <path class="cls-29" d="M368.59,307.08c10.72-2.67,16.44-9.36,17.16-20.08.47-6.97-2.2-12.8-8.01-17.47" vector-effect="non-scaling-stroke"/>
    <path class="cls-1" d="M768.12,795.38c-5.92-11.1-10.9-22.49-14.94-34.16-.08-.22-.32-.33-.54-.25-.02,0-.04.02-.06.03-6.29,3.61-13.09,5.39-20.4,5.35-44.58-.25-89.15-.3-133.71-.15" vector-effect="non-scaling-stroke"/>
    <path class="cls-25" d="M598.47,766.2c-16.72-.05-33.44-.08-50.15-.08-3.13,0-6.17-.48-9.12-1.45" vector-effect="non-scaling-stroke"/>
    <path class="cls-14" d="M539.2,764.67c64.44-.05,128.87-.03,193.3.06,21.77.03,37.45-17.32,37.47-38.73.11-132.05.1-253.95,0-365.72,0-3.63-.24-6-.71-7.09-1.9-4.46-5.48-6.74-10.75-6.85-5.67-.11-11.36-.14-17.07-.09" vector-effect="non-scaling-stroke"/>
    <path class="cls-16" d="M390.2,221.41c-3.68,17.31-7.26,32.7-12.46,48.12" vector-effect="non-scaling-stroke"/>
    <path class="cls-21" d="M377.74,269.53c-5.06-3.77-10.3-5.2-15.72-4.29-14.56,2.43-23.02,18.66-15.03,31.74,4.79,7.84,11.99,11.21,21.6,10.1" vector-effect="non-scaling-stroke"/>
    <path class="cls-16" d="M368.59,307.08c-2.61,12.89-4.41,25.95-5.38,39.17" vector-effect="non-scaling-stroke"/>
    <path class="cls-21" d="M363.21,346.25c-32.15.05-64.3.08-96.47.08-8.36,0-12.54,4.23-12.53,12.66.03,79.17.04,158.31.04,237.44" vector-effect="non-scaling-stroke"/>
    <path class="cls-16" d="M254.25,596.43c-15.88,16.02-27.51,36.37-37.98,56.17-.15.29-.23.61-.24.93l-.22,28.26" vector-effect="non-scaling-stroke"/>
    <path class="cls-15" d="M345.46,764.67c-3.92.15-7.89.2-11.92.17,1.12.65,2.24,1.26,3.37,1.81,5.88,2.91,8.42,7.58,7.61,14.03-.91,7.2-2.09,14.22-1.73,22.81" vector-effect="non-scaling-stroke"/>
    <path class="cls-27" d="M436.2,764.67c2.33.77,4.73,1.2,7.2,1.28,5.58.19,12.27.36,20.08.52.3.01.55.23.6.52,1.8,10.55-2.49,22.73-10.68,29.31-3.45,2.77-7.49,4.99-12.11,6.67-.04.02-.05.07-.03.11.01.02.04.04.06.04l6.72.34" vector-effect="non-scaling-stroke"/>
    <path class="cls-13" d="M303.71,764.64l-11.08.19c-.24,0-.44.19-.44.44,0,.02,0,.04,0,.06,1.77,12.53.82,24.61-.96,38.1" vector-effect="non-scaling-stroke"/>
    <path class="cls-1" d="M767.76,223.82c-5.44,29.65-9.46,59.49-13.99,89.29-1.87,12.31-4.29,23.64-12.34,33.14" vector-effect="non-scaling-stroke"/>
    <path class="cls-26" d="M741.43,346.25h-80.45" vector-effect="non-scaling-stroke"/>
    <path class="cls-19" d="M681.32,221.26c-6.37,21.14-8.41,41.52-11.22,62.69-2.62,19.84-6.2,41.47-9.12,62.29" vector-effect="non-scaling-stroke"/>
    <path class="cls-5" d="M660.98,346.24l-38.01.03" vector-effect="non-scaling-stroke"/>
    <path class="cls-8" d="M604.96,803.42l-51.53-.17c-.23,0-.42-.18-.42-.41v-.02c0-.19.14-.34.33-.35h0c12.48-.27,20.49-.49,24.02-.65,5.32-.25,10.14-1.47,12.35-6.47,4-9.03,8.64-19.43,8.76-29.15" vector-effect="non-scaling-stroke"/>
    <path class="cls-21" d="M312.25,286.25c0-11.67-9.46-21.13-21.13-21.13h0c-11.67,0-21.13,9.46-21.13,21.13h0c0,11.67,9.46,21.13,21.13,21.13h0c11.67,0,21.13-9.46,21.13-21.13h0" vector-effect="non-scaling-stroke"/>
    <path class="cls-29" d="M435.02,265.14c-11.51.83-20.17,10.93-19.34,22.57.83,11.64,10.84,20.41,22.36,19.58,11.51-.83,20.17-10.93,19.34-22.57-.83-11.64-10.84-20.41-22.36-19.58" vector-effect="non-scaling-stroke"/>
    <path class="cls-3" d="M371.03,572.04v85.48" vector-effect="non-scaling-stroke"/>
    <path class="cls-12" d="M371.03,657.52l-.1,57.49c0,.38.29.68.67.69,0,0,0,0,.01,0,18.67-.05,35.85-.06,51.52-.02,10.4.03,10.16-8.9,10.14-16.68-.06-26.15-.07-53.4-.02-81.75,0-3.91,1.16-6.99,3.47-9.22" vector-effect="non-scaling-stroke"/>
    <path class="cls-2" d="M436.72,608.03c5.91-5.91,11.78-11.82,17.62-17.75,4.85-4.91,8.6-8.06,14.01-1.87,5.75,6.58,11.54,13.15,17.35,19.72" vector-effect="non-scaling-stroke"/>
    <path class="cls-5" d="M485.7,608.13l34.58,39.32" vector-effect="non-scaling-stroke"/>
    <path class="cls-24" d="M520.28,647.45c18.81,21.37,37.6,42.83,56.36,64.4,1.81,2.09,4.1,3.26,6.86,3.52,2.29.21,4.79.32,7.5.32,24.4,0,45.46-.02,63.18-.04,1.22,0,2.31-.74,2.77-1.87.9-2.23.45-4.36-1.36-6.37-34.55-38.52-69.01-77.16-103.38-115.93" vector-effect="non-scaling-stroke"/>
    <path class="cls-5" d="M552.21,591.48l-36.76-41.29" vector-effect="non-scaling-stroke"/>
    <path class="cls-2" d="M515.45,550.19c-6.61-7.73.6-13.22,6.37-18.85" vector-effect="non-scaling-stroke"/>
    <path class="cls-5" d="M521.82,531.34c42.89-43.14,85.67-86.3,128.36-129.47,2.25-2.28,8.54-7.3,6.61-10.98-.63-1.2-1.6-1.8-2.9-1.81-23.77-.09-47.98-.12-72.64-.09-3.8.01-7.74-.31-10.65,1.14-1.11.55-2.44,1.61-4.01,3.2-11.91,12.07-23.88,24.15-35.91,36.22" vector-effect="non-scaling-stroke"/>
    <path class="cls-2" d="M530.68,429.55l-40.19,40.39" vector-effect="non-scaling-stroke"/>
    <path class="cls-12" d="M490.49,469.94l-32.25,32.57" vector-effect="non-scaling-stroke"/>
    <path class="cls-3" d="M458.24,502.51c-3.59,3.63-7.21,7.26-10.86,10.87-1.75,1.73-3.75,2.62-6.02,2.66-5.33.1-8.09-4.56-8.04-9.54.05-4.03.04-12.88-.03-26.53" vector-effect="non-scaling-stroke"/>
    <path class="cls-29" d="M433.29,479.97c.05-24.69.07-49.43.08-74.22,0-5.92.32-12.04-4.69-15.39-1.33-.89-3.69-1.34-7.06-1.35-26.52-.05-43.27-.07-50.25-.06-.18,0-.33.15-.33.33v182.76" vector-effect="non-scaling-stroke"/>
    <path class="cls-30" d="M433.29,479.97c-6.34,8.21-11.03,14.75-14.08,19.63-11.06,17.72-22.49,34.31-34.28,49.78-3.19,4.19-7.61,8.96-13.25,14.31-.23.22-.37.53-.38.85l-.27,7.5" vector-effect="non-scaling-stroke"/>
    <path class="cls-28" d="M371.03,657.52c5.87.51,9.9-3.45,12.83-7.89,10.39-15.72,16.3-36.68,26.02-55.22,9.83-18.74,24.19-40.53,31.7-52.75,7.41-12.07,12.97-25.12,16.66-39.15" vector-effect="non-scaling-stroke"/>
    <path class="cls-10" d="M515.45,550.19l-29.75,57.94" vector-effect="non-scaling-stroke"/>
    <path class="cls-15" d="M436.72,608.03c8.82-16.86,17.81-31.36,26.87-46.96,7.51-12.93,13.75-26.44,18.7-40.53,6.05-17.21,8.78-34.08,8.2-50.6" vector-effect="non-scaling-stroke"/>
    <path class="cls-10" d="M521.82,531.34c4.37-15.01,7.4-29.11,9.09-42.32,1.73-13.55,3.48-26.4,5.24-38.55.53-3.67.83-7.37.91-11.08.1-4.8-1-9.14-6.38-9.84" vector-effect="non-scaling-stroke"/>
    <path class="cls-6" d="M552.21,591.48c-7.26,7.81-13.09,16.6-17.48,26.35-4.49,9.95-9.3,19.83-14.45,29.62" vector-effect="non-scaling-stroke"/>
    <path class="cls-24" d="M661.9,543.48c4.08,4.05.68,7.3-2.18,10.2-10.2,10.31-21.41,21.61-33.64,33.9-3.87,3.88-2.2,9.26,3.49,9.68,3.54.26,6.56.25,9.05-.04,3.41-.4,5.53-2.3,8.01-4.84,5.09-5.2,18.06-18.28,38.93-39.24,2.85-2.87,3.54-5.93,2.06-9.19-.98-2.16-2.58-3.4-4.74-5.62-6.51-6.67-18.15-18.18-34.93-34.53-1.91-1.86-3.86-3.65-5.85-5.38-3.54-3.09-7.89-2.94-12.45-2.55-6.67.57-8.27,6.99-3.8,11.48,19.8,19.86,31.82,31.9,36.05,36.13" vector-effect="non-scaling-stroke"/>
    <path class="cls-26" d="M744.09,547.11c0-2.13-1.72-3.85-3.85-3.85h-33.6c-2.13,0-3.85,1.72-3.85,3.85h0v8.86c0,2.13,1.72,3.85,3.85,3.85h33.6c2.13,0,3.85-1.72,3.85-3.85h0v-8.86" vector-effect="non-scaling-stroke"/>
  </g>
  <path d="M640.07,219.17l84.25.1s.04,0,.07-.01c.31-.06.6-.1.86-.11,1.79-.1,7.35-.05,16.7.15,1.26.03,3.46-.08,6.6-.31,4.05-.31,7.78.34,12.93,1.12,9.96,1.51,20.4,6.34,27.56,13.8,1.67,1.75,3.48,3.57,5.42,5.46,2.34,2.28,3.92,4.82,6.09,7.31.29.33.54.7.74,1.1l6.25,12.83c.28.57.44,1.18.48,1.81.14,2.37.48,4.23,1.02,5.57.63,1.55.94,3.06.94,4.51.09,162.24.09,291.78.01,388.63,0,.84-.31,1.59-.23,2.39.33,3.32.4,6.53.2,9.64v.02c.09,19.26.11,36.81.08,52.66-.01,3.83-.21,7.44-.58,10.81-.68,6.13-1.13,9.7-1.34,10.71-.43,2.05-1.51,5.55-3.22,10.49-1.25,3.6-2.76,6.92-4.51,9.95-11.6,20.02-29.23,32.21-52.9,36.57-1.99.37-3.98.58-5.99.65-3.96.13-7.3,1-11.68,1-145.59.03-291.19.03-436.79.01-2.51,0-4.83-.23-6.98-.7-1.95-.43-4.25-.6-6.9-.51-.38.01-.75-.03-1.11-.14-.41-.13-3.14-.64-8.21-1.54-4.74-.84-9.09-2.56-13.05-5.15-.14-.09-.43-.14-.87-.14-.3,0-.6-.08-.86-.22-6.5-3.48-12.61-7.76-18.32-12.83-1.65-1.46-3-2.99-4.06-4.6-1.51-2.28-3.55-3.9-5.41-6.62-3.62-5.34-4.8-8.25-7.73-14.06-2.37-4.71-3.79-8.86-4.26-12.47-.37-2.84-.93-5.7-.99-8.76-.26-13.93.02-28.33.02-42.06.02-53.33-.06-192.01-.25-416.02,0-7.7,1.2-14.75,3.56-21.44.13-.36.29-.66.49-.9.19-.23.2-.59,0-1.1-.12-.33-.11-.69.03-1.01.24-.55.9-1.68,1.97-3.41,4.5-7.26,9.63-13.47,15.38-18.63,2.9-2.61,7.67-5.67,14.31-9.18.89-.47,1.44-.82,1.63-1.05.53-.61,1.12-.73,1.77-.35.29.17.66.08.84-.2.09-.15.35-.41.76-.79.38-.35,1.46.08,2.4-.23,5.03-1.67,10.64-2.51,16.81-2.52,75.68-.07,118.37-.05,128.07.04.18,0,.36-.05.52-.14.55-.33,1.12-.36,1.7-.08.19.09.4.14.61.14l88.94-.04c.15,0,.29-.02.43-.05,1.22-.28,2.21-.38,2.97-.29,3.72.39,6.47.5,8.26.31,2.14-.23,3.93-.22,5.37.02.33.06.67,0,.97-.14.05-.02.1-.05.17-.08.13-.06.28-.08.42-.06,2.47.31,4.55.31,6.24.02.13-.03.27.01.41.12.02.02.11.06.27.13.11.05.21.04.31-.02.55-.35,1.48-.37,2.79-.08,1.25.27,3.16.23,5.73-.12.81-.12,1.53-.08,2.15.12,1.29.4,1.67-.48,2.82-.03,1.33.52,3-.24,4.47-.12,3.65.32,7.78.28,12.38-.13.13,0,.63.12,1.5.39.49.15,1.57.18,3.24.07,4.01-.25,6.73-.4,8.15-.44.27,0,.54.03.8.11l.62.2c.3.1.62.12.93.05,2.4-.51,4.84-.52,7.32-.03.26.05.54.06.81,0,2.88-.51,5.76-.49,8.64.08,1.04.21,2.03.23,2.96.04.39-.08.67-.16.84-.25.31-.16.67-.18,1-.07,1.01.37,2.18.36,3.52-.03.48-.14.98-.13,1.46.02l.7.23c.35.12.74.1,1.08-.06.53-.25,1.06-.28,1.59-.08,1.34.52,1.76-.44,2.78-.06.49.17.87.25,1.14.23.16-.01,2.02-.14,5.57-.37,1.73-.12,3.61.74,5.36.15.31-.1.65-.1.96,0,.6.2,1.11.29,1.52.26,3.64-.2,6.56-.34,8.75-.43,1.85-.07,3.24.04,4.16.34.05.01.11.02.17.02h7.8s.04,0,.06-.01c1.82-.45,3.99-.5,6.52-.13.04,0,.08,0,.11,0ZM519.24,221.32l-49.05.04-79.99.05c-1.37.07-2.79.11-4.26.11-47.3-.13-82.95-.19-106.94-.18-6.04,0-10.9.31-14.58.9-16.04,2.58-29.92,12.69-39.16,26.09-5.66,8.21-8.44,17.54-9.21,27.17-.07.93-.11,5.1-.12,12.5-.11,131.26-.15,262.52-.12,393.79-.02,16.49-.06,32.97-.11,49.46-.07,27.08,17.19,53.39,41.49,64.79,11.2,5.26,21.45,6.92,34.04,7.39l51.56.06,105.25-.03,156.92-.04c42.68.08,85.36.04,128.04-.11,12.35-.05,24.05-2.69,35.12-7.93,15.18-7.53,26.17-19.04,32.98-34.53,3.61-8.23,5.59-16.34,5.93-24.33.13-3.09.27-6.18.42-9.27.15-3.08.25-21.25.29-54.5.12-93.16.17-159.94.16-200.33-.03-53.8.39-119.86.3-181.67-.01-7.91-.18-13.55-.49-16.92-2.09-22.07-18.65-43.14-39.95-50.01-5.93-1.69-11.68-2.53-17.26-2.54-20.58-.02-29.89-.18-41.57-.06-6.43.06-10.17.05-11.21-.02-1.49-.11-4.18.2-6.29.04-3.39-.25-6.76-.25-10.11.02l-32.11.05-74.9-.12-55.07.13Z"/>
  <path class="cls-38" d="M574.31,221.19c-.56.29-1.16.45-1.81.46-.29,0-.54.2-.63.47-2.48,7.9-4.03,15.71-4.65,23.44-1.88,23.3-1.95,33.62-4.79,54.23-2.13,15.42-4.11,30.91-5.96,46.46h-41.48c1.92-23.7,2.56-47.4,1.92-71.11-.37-13.79-.54-23.91-.53-30.36.01-7.46.97-15.28,2.86-23.46l55.07-.13Z"/>
  <path class="cls-32" d="M649.21,221.31l-4.18.25c-.29.02-.53.23-.58.52-3.12,16.51-5.17,30.59-8.37,50.28-2.35,14.52-7.19,35.38-9.69,48.74-1.33,7.08-2.47,15.47-3.42,25.17l-66.5-.02c1.85-15.55,3.83-31.04,5.96-46.46,2.84-20.61,2.91-30.93,4.79-54.23.62-7.73,2.17-15.54,4.65-23.44.09-.27.34-.46.63-.47.65-.01,1.25-.17,1.81-.46l74.9.12Z"/>
  <path class="cls-34" d="M681.32,221.26c-6.37,21.14-8.41,41.52-11.22,62.69-2.62,19.84-6.2,41.47-9.12,62.29l-38.01.03c.95-9.7,2.09-18.09,3.42-25.17,2.5-13.36,7.34-34.22,9.69-48.74,3.2-19.69,5.25-33.77,8.37-50.28.05-.29.29-.5.58-.52l4.18-.25,32.11-.05Z"/>
  <path class="cls-31" d="M767.76,223.82c-5.44,29.65-9.46,59.49-13.99,89.29-1.87,12.31-4.29,23.64-12.34,33.14h-80.45c2.92-20.83,6.5-42.46,9.12-62.3,2.81-21.17,4.85-41.55,11.22-62.69,3.35-.27,6.72-.27,10.11-.02,2.11.16,4.8-.15,6.29-.04,1.04.07,4.78.08,11.21.02,11.68-.12,20.99.04,41.57.06,5.58,0,11.33.85,17.26,2.54Z"/>
  <path class="cls-33" d="M390.2,221.41c-3.68,17.31-7.26,32.7-12.46,48.12-5.06-3.77-10.3-5.2-15.72-4.29-14.56,2.43-23.02,18.66-15.03,31.74,4.79,7.84,11.99,11.21,21.6,10.1-2.61,12.89-4.41,25.95-5.38,39.17-32.15.05-64.3.08-96.47.08-8.36,0-12.54,4.23-12.53,12.66.03,79.17.04,158.31.04,237.44-15.88,16.02-27.51,36.37-37.98,56.17-.15.29-.23.61-.24.93l-.22,28.26c-.03-131.27.01-262.53.12-393.79,0-7.4.05-11.57.12-12.5.77-9.63,3.55-18.96,9.21-27.17,9.24-13.4,23.12-23.51,39.16-26.09,3.68-.59,8.54-.89,14.58-.9,23.99-.01,59.64.05,106.94.18,1.47,0,2.89-.04,4.26-.11ZM312.25,286.25c0-11.67-9.46-21.13-21.13-21.13h0c-11.67,0-21.13,9.46-21.13,21.13h0c0,11.67,9.46,21.13,21.13,21.13h0c11.67,0,21.13-9.46,21.13-21.13h0Z"/>
  <path class="cls-40" d="M470.19,221.36c-.44,9.55-.99,18.95-1.03,28.69-.11,21.73-.73,43.46-1.88,65.17-.55,10.32-.19,20.67,1.06,31.04h-105.13c.97-13.23,2.77-26.29,5.38-39.18,10.72-2.67,16.44-9.36,17.16-20.08.47-6.97-2.2-12.8-8.01-17.47,5.2-15.42,8.78-30.81,12.46-48.12l79.99-.05ZM435.02,265.14c-11.51.83-20.17,10.93-19.34,22.57.83,11.64,10.84,20.41,22.36,19.58,11.51-.83,20.17-10.93,19.34-22.57-.83-11.64-10.84-20.41-22.36-19.58Z"/>
  <path class="cls-37" d="M519.24,221.32c-1.89,8.18-2.85,16-2.86,23.46-.01,6.45.16,16.57.53,30.36.64,23.71,0,47.41-1.92,71.1l-46.65.02c-1.25-10.37-1.61-20.72-1.06-31.04,1.15-21.71,1.77-43.44,1.88-65.17.04-9.74.59-19.14,1.03-28.69l49.05-.04Z"/>
  <path class="cls-36" d="M767.76,223.82c21.3,6.87,37.86,27.94,39.95,50.01.31,3.37.48,9.01.49,16.92.09,61.81-.33,127.87-.3,181.67.01,40.39-.04,107.17-.16,200.33-.04,33.25-.14,51.42-.29,54.5-.15,3.09-.29,6.18-.42,9.27-.34,7.99-2.32,16.1-5.93,24.33-6.81,15.49-17.8,27-32.98,34.53-5.92-11.1-10.9-22.49-14.94-34.16-.08-.22-.32-.33-.54-.25-.02,0-.04.02-.06.03-6.29,3.61-13.09,5.39-20.4,5.35-44.58-.25-89.15-.3-133.71-.15-16.72-.05-33.44-.08-50.15-.08-3.13,0-6.17-.48-9.12-1.45,64.44-.05,128.87-.03,193.3.06,21.77.03,37.45-17.32,37.47-38.73.11-132.05.1-253.95,0-365.72,0-3.63-.24-6-.71-7.09-1.9-4.46-5.48-6.74-10.75-6.85-5.67-.11-11.36-.14-17.07-.09,8.05-9.5,10.47-20.83,12.34-33.14,4.53-29.8,8.55-59.64,13.99-89.29Z"/>
  <path class="cls-35" d="M377.74,269.53c5.81,4.67,8.48,10.5,8.01,17.47-.72,10.72-6.44,17.41-17.16,20.08-9.61,1.11-16.81-2.26-21.6-10.1-7.99-13.08.47-29.31,15.03-31.74,5.42-.91,10.66.52,15.72,4.29Z"/>
  <circle class="cls-35" cx="291.12" cy="286.25" r="21.13"/>
  <ellipse class="cls-35" cx="436.53" cy="286.22" rx="20.9" ry="21.13" transform="translate(-19.35 31.94) rotate(-4.1)"/>
  <path class="cls-35" d="M363.21,346.25h105.13s46.65-.01,46.65-.01h41.48s66.5.03,66.5.03l38.01-.03h80.45c5.71-.04,11.4-.01,17.07.1,5.27.11,8.85,2.39,10.75,6.85.47,1.09.7,3.46.71,7.09.11,111.77.12,233.67,0,365.72-.02,21.41-15.7,38.76-37.47,38.73-64.43-.09-128.86-.11-193.3-.06h-193.74l-41.75-.03c-7.52.05-12.59,0-15.22-.12-8.16-.4-16.08-3.99-22.18-9.74-7.99-7.55-12-17.22-12.01-29.03-.05-43.08-.06-86.19-.05-129.32,0-79.13-.01-158.27-.04-237.44,0-8.43,4.17-12.65,12.53-12.66,32.17,0,64.32-.03,96.47-.08ZM371.03,572.04v85.48l-.1,57.49c0,.38.29.68.67.69,0,0,0,0,.01,0,18.67-.05,35.85-.06,51.52-.02,10.4.03,10.16-8.9,10.14-16.68-.06-26.15-.07-53.4-.02-81.75,0-3.91,1.16-6.99,3.47-9.22,5.91-5.91,11.78-11.82,17.62-17.75,4.85-4.91,8.6-8.06,14.01-1.87,5.75,6.58,11.54,13.15,17.35,19.72l34.58,39.32c18.81,21.37,37.6,42.83,56.36,64.4,1.81,2.09,4.1,3.26,6.86,3.52,2.29.21,4.79.32,7.5.32,24.4,0,45.46-.02,63.18-.04,1.22,0,2.31-.74,2.77-1.87.9-2.23.45-4.36-1.36-6.37-34.55-38.52-69.01-77.16-103.38-115.93l-36.76-41.29c-6.61-7.73.6-13.22,6.37-18.85,42.89-43.14,85.67-86.3,128.36-129.47,2.25-2.28,8.54-7.3,6.61-10.98-.63-1.2-1.6-1.8-2.9-1.81-23.77-.09-47.98-.12-72.64-.09-3.8.01-7.74-.31-10.65,1.14-1.11.55-2.44,1.61-4.01,3.2-11.91,12.07-23.88,24.15-35.91,36.22l-40.19,40.39-32.25,32.57c-3.59,3.63-7.21,7.26-10.86,10.87-1.75,1.73-3.75,2.62-6.02,2.66-5.33.1-8.09-4.56-8.04-9.54.05-4.03.04-12.88-.03-26.53.05-24.69.07-49.43.08-74.22,0-5.92.32-12.04-4.69-15.39-1.33-.89-3.69-1.34-7.06-1.35-26.52-.05-43.27-.07-50.25-.06-.18,0-.33.15-.33.33v182.76ZM661.9,543.48c4.08,4.05.68,7.3-2.18,10.2-10.2,10.31-21.41,21.61-33.64,33.9-3.87,3.88-2.2,9.26,3.49,9.68,3.54.26,6.56.25,9.05-.04,3.41-.4,5.53-2.3,8.01-4.84,5.09-5.2,18.06-18.28,38.93-39.24,2.85-2.87,3.54-5.93,2.06-9.19-.98-2.16-2.58-3.4-4.74-5.62-6.51-6.67-18.15-18.18-34.93-34.53-1.91-1.86-3.86-3.65-5.85-5.38-3.54-3.09-7.89-2.94-12.45-2.55-6.67.57-8.27,6.99-3.8,11.48,19.8,19.86,31.82,31.9,36.05,36.13ZM744.09,547.11c0-2.13-1.72-3.85-3.85-3.85h-33.6c-2.13,0-3.85,1.72-3.85,3.85h0v8.86c0,2.13,1.72,3.85,3.85,3.85h33.6c2.13,0,3.85-1.72,3.85-3.85h0v-8.86Z"/>
  <path class="cls-40" d="M433.29,479.97c-6.34,8.21-11.03,14.75-14.08,19.63-11.06,17.72-22.49,34.31-34.28,49.78-3.19,4.19-7.61,8.96-13.25,14.31-.23.22-.37.53-.38.85l-.27,7.5v-182.76c.01-.18.16-.33.34-.33,6.98,0,23.73.01,50.25.06,3.37,0,5.73.46,7.06,1.35,5.01,3.35,4.69,9.47,4.69,15.39,0,24.79-.03,49.53-.08,74.22Z"/>
  <path class="cls-34" d="M521.82,531.34c4.37-15.01,7.4-29.11,9.09-42.32,1.73-13.55,3.48-26.4,5.24-38.55.53-3.67.83-7.37.91-11.08.1-4.8-1-9.14-6.38-9.84,12.03-12.07,24-24.15,35.91-36.22,1.57-1.59,2.9-2.65,4.01-3.2,2.91-1.45,6.85-1.13,10.65-1.14,24.66-.03,48.87,0,72.64.09,1.3,0,2.27.61,2.9,1.81,1.93,3.68-4.36,8.7-6.61,10.98-42.69,43.17-85.47,86.33-128.36,129.47Z"/>
  <path class="cls-32" d="M521.82,531.34c-5.77,5.63-12.98,11.12-6.37,18.85l-29.75,57.94c-5.81-6.57-11.6-13.14-17.35-19.72-5.41-6.19-9.16-3.04-14.01,1.87-5.84,5.93-11.71,11.84-17.62,17.75,8.82-16.86,17.81-31.36,26.87-46.96,7.51-12.93,13.75-26.44,18.7-40.53,6.05-17.21,8.78-34.08,8.2-50.6l40.19-40.39c5.38.7,6.48,5.04,6.38,9.84-.08,3.71-.38,7.41-.91,11.08-1.76,12.15-3.51,25-5.24,38.55-1.69,13.21-4.72,27.31-9.09,42.32Z"/>
  <path class="cls-38" d="M436.72,608.03c-2.31,2.23-3.46,5.31-3.47,9.22-.05,28.35-.04,55.6.02,81.75.02,7.78.26,16.71-10.14,16.68-15.67-.04-32.85-.03-51.52.02-.38,0-.68-.3-.68-.68,0,0,0,0,0-.01l.1-57.49c5.87.51,9.9-3.45,12.83-7.89,10.39-15.72,16.3-36.68,26.02-55.22,9.83-18.74,24.19-40.53,31.7-52.75,7.41-12.07,12.97-25.12,16.66-39.15l32.25-32.57c.58,16.52-2.15,33.39-8.2,50.6-4.95,14.09-11.19,27.6-18.7,40.53-9.06,15.6-18.05,30.1-26.87,46.96Z"/>
  <path class="cls-37" d="M433.29,479.97c.07,13.65.08,22.5.03,26.53-.05,4.98,2.71,9.64,8.04,9.54,2.27-.04,4.27-.93,6.02-2.66,3.65-3.61,7.27-7.24,10.86-10.87-3.69,14.03-9.25,27.08-16.66,39.15-7.51,12.22-21.87,34.01-31.7,52.75-9.72,18.54-15.63,39.5-26.02,55.22-2.93,4.44-6.96,8.4-12.83,7.89v-85.48l.27-7.5c.01-.32.15-.62.38-.85,5.64-5.35,10.06-10.12,13.25-14.31,11.79-15.47,23.22-32.06,34.28-49.78,3.05-4.88,7.74-11.42,14.08-19.63Z"/>
  <path class="cls-39" d="M659.72,553.68c2.86-2.9,6.26-6.15,2.18-10.2-4.23-4.23-16.25-16.27-36.05-36.13-4.47-4.49-2.87-10.91,3.8-11.48,4.56-.39,8.91-.54,12.45,2.55,1.99,1.73,3.94,3.52,5.85,5.38,16.78,16.35,28.42,27.86,34.93,34.53,2.16,2.22,3.76,3.46,4.74,5.62,1.48,3.26.79,6.32-2.06,9.19-20.87,20.96-33.84,34.04-38.93,39.24-2.48,2.54-4.6,4.44-8.01,4.84-2.49.29-5.51.3-9.05.04-5.69-.42-7.36-5.8-3.49-9.68,12.23-12.29,23.44-23.59,33.64-33.9Z"/>
  <rect class="cls-31" x="702.79" y="543.26" width="41.3" height="16.56" rx="3.85" ry="3.85"/>
  <path class="cls-34" d="M515.45,550.19l36.76,41.29c-7.26,7.81-13.09,16.6-17.48,26.35-4.49,9.95-9.3,19.83-14.45,29.62l-34.58-39.32,29.75-57.94Z"/>
  <path class="cls-39" d="M552.21,591.48c34.37,38.77,68.83,77.41,103.38,115.93,1.81,2.01,2.26,4.14,1.36,6.37-.46,1.13-1.55,1.86-2.77,1.87-17.72.02-38.78.03-63.18.04-2.71,0-5.21-.11-7.5-.32-2.76-.26-5.05-1.43-6.86-3.52-18.76-21.57-37.55-43.03-56.36-64.4,5.15-9.79,9.96-19.67,14.45-29.62,4.39-9.75,10.22-18.54,17.48-26.35Z"/>
  <path class="cls-40" d="M254.25,596.43c-.01,43.13,0,86.24.05,129.32.01,11.81,4.02,21.48,12.01,29.03,6.1,5.75,14.02,9.34,22.18,9.74,2.63.13,7.7.17,15.22.12l-11.08.19c-.24,0-.44.19-.44.44,0,.02,0,.04,0,.06,1.77,12.53.82,24.61-.96,38.1-12.59-.47-22.84-2.13-34.04-7.39-24.3-11.4-41.56-37.71-41.49-64.79.05-16.49.09-32.97.11-49.46l.22-28.26c0-.32.09-.64.24-.93,10.47-19.8,22.1-40.15,37.98-56.17Z"/>
  <path class="cls-31" d="M768.12,795.38c-11.07,5.24-22.77,7.88-35.12,7.93-42.68.15-85.36.19-128.04.11l-51.53-.17c-.23,0-.42-.18-.42-.41v-.02c0-.19.14-.34.33-.35h0c12.48-.27,20.49-.49,24.02-.65,5.32-.25,10.14-1.47,12.35-6.47,4-9.03,8.64-19.43,8.76-29.15,44.56-.15,89.13-.1,133.71.15,7.31.04,14.11-1.74,20.4-5.35.2-.11.46-.04.57.16.01.02.02.04.03.06,4.04,11.67,9.02,23.06,14.94,34.16Z"/>
  <path class="cls-38" d="M345.46,764.67c-3.92.15-7.89.2-11.92.17,1.12.65,2.24,1.26,3.37,1.81,5.88,2.91,8.42,7.58,7.61,14.03-.91,7.2-2.09,14.22-1.73,22.81l-51.56-.06c1.78-13.49,2.73-25.57.96-38.1-.03-.24.14-.46.38-.5.02,0,.04,0,.06,0l11.08-.19,41.75.03Z"/>
  <path class="cls-32" d="M436.2,764.67c2.33.77,4.73,1.2,7.2,1.28,5.58.19,12.27.36,20.08.52.3.01.55.23.6.52,1.8,10.55-2.49,22.73-10.68,29.31-3.45,2.77-7.49,4.99-12.11,6.67-.04.02-.05.07-.03.11.01.02.04.04.06.04l6.72.34-105.25.03c-.36-8.59.82-15.61,1.73-22.81.81-6.45-1.73-11.12-7.61-14.03-1.13-.55-2.25-1.16-3.37-1.81,4.03.03,8-.02,11.92-.17h90.74Z"/>
  <path class="cls-39" d="M539.2,764.67c2.95.97,5.99,1.45,9.12,1.45,16.71,0,33.43.03,50.15.08-.12,9.72-4.76,20.12-8.76,29.15-2.21,5-7.03,6.22-12.35,6.47-3.53.16-11.54.38-24.02.65-.19,0-.34.16-.33.35h0v.02c0,.23.19.41.42.41l51.53.17-156.92.04-6.72-.34s-.08-.04-.07-.09c0-.03.02-.05.04-.06,4.62-1.68,8.66-3.9,12.11-6.67,8.19-6.58,12.48-18.76,10.68-29.31-.05-.29-.3-.51-.6-.52-7.81-.16-14.5-.33-20.08-.52-2.47-.08-4.87-.51-7.2-1.28h103Z"/>
</svg>